<svg width="215" height="215" viewBox="0 0 215 215" fill="none" xmlns="http://www.w3.org/2000/svg">
<path d="M0 15C0 6.71572 6.71573 0 15 0H200C208.284 0 215 6.71573 215 15V200C215 208.284 208.284 215 200 215H15C6.71572 215 0 208.284 0 200V15Z" fill="#4F46E5" fill-opacity="0.8"/>
<path d="M83.7272 71.3232C78.6002 71.3232 74.0104 72.251 69.9576 74.1064C65.9537 75.9619 62.5602 78.6475 59.777 82.1631C56.9938 85.6299 54.8698 89.8535 53.4049 94.834C51.9401 99.7656 51.2076 105.332 51.2076 111.533C51.2076 119.834 52.3795 126.987 54.7233 132.993C57.067 138.95 60.6315 143.54 65.4166 146.763C70.2018 149.937 76.2565 151.523 83.5807 151.523C88.1217 151.523 92.5406 151.084 96.8375 150.205C101.134 149.326 105.578 148.13 110.168 146.616V161.558C105.822 163.267 101.427 164.512 96.984 165.293C92.5406 166.074 87.4137 166.465 81.6031 166.465C70.6656 166.465 61.5836 164.194 54.3571 159.653C47.1793 155.112 41.8082 148.716 38.2438 140.464C34.7281 132.212 32.9703 122.544 32.9703 111.46C32.9703 103.354 34.0934 95.9326 36.3395 89.1943C38.5856 82.4561 41.8571 76.6455 46.1539 71.7627C50.4508 66.8311 55.7487 63.0469 62.0475 60.4102C68.3951 57.7246 75.6461 56.3818 83.8004 56.3818C89.1715 56.3818 94.4449 56.9922 99.6207 58.2129C104.845 59.3848 109.679 61.0693 114.123 63.2666L107.97 77.7686C104.259 76.0107 100.378 74.4971 96.3248 73.2275C92.2721 71.958 88.0729 71.3232 83.7272 71.3232ZM124.166 165V57.9199H141.744V150.059H187.227V165H124.166Z" fill="white"/>
</svg>
